PathFileType	4	(X/Y/Z)	/Users/itak/Documents/Research/Walk-IL/dataset/trc/00297_00010.trc
DataRate	CameraRate	NumFrames	NumMarkers	Units	OrigDataRate	OrigDataStartFrame	OrigNumFrames
100.000000	100.000000	4	53	mm	100.000000	0	377
Frame#	Time	RPSI			LPSI			L3			STRN			T10			C7			CLAV			RBAK			LBAK			LSHO			LUPA			LAEL			LAOL			LWTS			LWPS			LFRA			LIFD			LHPS			LHTS			RSHO			RUPA			RAEL			RAOL			RWTS			RWPS			RFRA			RIFD			RHTS			RHPS			RBHD			LFHD			RFHD			LBHD			RASI			LASI			LKNE			LTHI			LANK			LTIP			LTOE			LMT1			LMT5			LHEE			RKNE			RTHI			RANK			RTIP			RTOE			RMT1			RMT5			RHEE			LHIP			RHIP			
		X1	Y1	Z1	X2	Y2	Z2	X3	Y3	Z3	X4	Y4	Z4	X5	Y5	Z5	X6	Y6	Z6	X7	Y7	Z7	X8	Y8	Z8	X9	Y9	Z9	X10	Y10	Z10	X11	Y11	Z11	X12	Y12	Z12	X13	Y13	Z13	X14	Y14	Z14	X15	Y15	Z15	X16	Y16	Z16	X17	Y17	Z17	X18	Y18	Z18	X19	Y19	Z19	X20	Y20	Z20	X21	Y21	Z21	X22	Y22	Z22	X23	Y23	Z23	X24	Y24	Z24	X25	Y25	Z25	X26	Y26	Z26	X27	Y27	Z27	X28	Y28	Z28	X29	Y29	Z29	X30	Y30	Z30	X31	Y31	Z31	X32	Y32	Z32	X33	Y33	Z33	X34	Y34	Z34	X35	Y35	Z35	X36	Y36	Z36	X37	Y37	Z37	X38	Y38	Z38	X39	Y39	Z39	X40	Y40	Z40	X41	Y41	Z41	X42	Y42	Z42	X43	Y43	Z43	X44	Y44	Z44	X45	Y45	Z45	X46	Y46	Z46	X47	Y47	Z47	X48	Y48	Z48	X49	Y49	Z49	X50	Y50	Z50	X51	Y51	Z51	X52	Y52	Z52	X53	Y53	Z53	

1	0	-1287.620727539062	1005.628662109375	648.4830322265625	-1278.47705078125	987.21044921875	472.7397766113281	-1256.648559570312	1071.866943359375	565.8729248046875	-981.4971313476562	1215.226318359375	559.7046508789062	-1252.695556640625	1192.8447265625	570.91162109375	-1169.801879882812	1428.086547851562	557.31640625	-1029.793090820312	1323.12744140625	557.8782348632812	-1241.666748046875	1300.703857421875	634.6676635742188	-1195.042846679688	1396.713012695312	452.9249877929688	-1106.44677734375	1391.010498046875	396.3215637207031	-1160.360473632812	1283.032592773438	324.4206848144531	-1189.743896484375	1081.22021484375	308.4537658691406	-1246.6376953125	1076.075927734375	373.6083374023438	-1125.202514648438	854.9226684570312	359.0894470214844	-1161.656372070312	843.9241333007812	297.2763671875	-1185.227294921875	976.2542114257812	300.6064453125	-1134.253051757812	671.164306640625	361.5466003417969	-1162.840087890625	755.0667724609375	302.1863403320312	-1108.002197265625	755.1641235351562	340.1341552734375	-1101.65771484375	1391.142456054688	714.028076171875	-1110.668212890625	1331.721801757812	781.3340454101562	-1120.773559570312	1061.2939453125	826.4988403320312	-1180.117919921875	1059.607666015625	750.6573486328125	-1053.61865234375	836.9498901367188	732.369873046875	-1073.740478515625	827.095703125	814.7831420898438	-1097.595458984375	991.3610229492188	825.99560546875	-1055.720458984375	650.6358032226562	719.0175170898438	-1026.683715820312	719.4546508789062	733.0361938476562	-1058.413208007812	715.7069091796875	796.0667724609375	-1135.040893554688	1574.995361328125	624.6685180664062	-976.31201171875	1607.587768554688	487.2120056152344	-968.7556762695312	1611.105834960938	579.4462280273438	-1147.17626953125	1560.013305664062	478.6410522460938	-1072.04296875	943.9146728515625	699.8370361328125	-1069.470092773438	941.220947265625	448.5223999023438	-970.6682739257812	508.3815307617188	426.8065490722656	-1035.663940429688	637.6884155273438	402.2169799804688	-1203.970092773438	119.9801254272461	418.3589477539062	-1078.2724609375	303.2233581542969	412.6682434082031	-1027.348510742188	54.53358459472656	509.4574279785156	-1101.4453125	60.66984939575195	538.4436645507812	-1090.902221679688	74.06365966796875	427.9433898925781	-1258.322875976562	130.5735321044922	468.2827453613281	-1223.00390625	475.0835571289062	708.1071166992188	-1162.037475585938	730.5156860351562	751.572998046875	-1340.059814453125	46.8338737487793	650.4550170898438	-1232.678100585938	352.4542236328125	686.5289306640625	-1146.639038085938	47.94439697265625	594.736083984375	-1204.083251953125	44.44158554077148	556.3009643554688	-1235.692260742188	41.32879638671875	670.0986328125	-1394.42578125	44.37483215332031	603.4241943359375	-1199.182006835938	932.42041015625	389.0530700683594	-1197.713134765625	949.548828125	760.1273193359375	
2	0.01	-1283.615112304688	1005.433959960938	648.5751953125	-1274.251342773438	987.3538818359375	472.8084411621094	-1252.244262695312	1071.890625	566.3392333984375	-977.3745727539062	1214.876586914062	559.9896850585938	-1248.296630859375	1192.54248046875	571.7850341796875	-1165.44189453125	1427.762084960938	558.0438232421875	-1025.483764648438	1322.733154296875	558.2733764648438	-1237.211791992188	1300.465454101562	635.5841674804688	-1190.92626953125	1396.45703125	453.7352905273438	-1102.52001953125	1390.71533203125	396.9111022949219	-1157.09326171875	1283.07275390625	325.0817565917969	-1187.5947265625	1081.419067382812	309.2164306640625	-1244.12109375	1076.538940429688	374.8084411621094	-1123.315185546875	854.9193115234375	359.3312072753906	-1160.249633789062	843.9375	297.7921142578125	-1183.490112304688	976.4342041015625	301.3052368164062	-1132.840454101562	671.1937866210938	361.9259338378906	-1161.520141601562	755.1563720703125	302.5813903808594	-1106.65576171875	755.0574951171875	340.2554016113281	-1096.955444335938	1390.834350585938	714.5555419921875	-1105.754516601562	1331.414672851562	781.9212036132812	-1114.931030273438	1060.82958984375	826.7333374023438	-1174.701416015625	1059.034545898438	751.169921875	-1047.2666015625	837.0379638671875	731.5802612304688	-1066.9365234375	826.8355712890625	814.07958984375	-1091.4775390625	991.0099487304688	825.9708251953125	-1048.686157226562	650.7722778320312	717.6433715820312	-1019.795532226562	719.7073974609375	731.7251586914062	-1051.159423828125	715.586181640625	794.886474609375	-1129.163452148438	1575.200561523438	625.326171875	-970.9644165039062	1606.304809570312	486.9041137695312	-962.8526000976562	1609.839111328125	579.0853271484375	-1142.363159179688	1560.162231445312	479.4613952636719	-1068.21240234375	943.164794921875	700.2567138671875	-1065.199340820312	941.1697387695312	448.9512939453125	-963.3573608398438	510.1264953613281	427.8864440917969	-1029.593383789062	638.9391479492188	402.7548828125	-1186.58837890625	114.990966796875	422.9980773925781	-1065.925659179688	301.5725708007812	415.3769836425781	-1008.027099609375	55.66270065307617	514.293701171875	-1082.201538085938	60.01029586791992	543.3765258789062	-1072.315307617188	72.31699371337891	432.7483520507812	-1241.129760742188	124.8053131103516	472.8544616699219	-1220.638793945312	474.6240844726562	708.01025390625	-1159.000244140625	729.7935791015625	751.5642700195312	-1340.061889648438	47.05162048339844	650.3609619140625	-1230.857055664062	352.0369262695312	686.4286499023438	-1146.646606445312	47.93666076660156	594.802490234375	-1204.001953125	44.43171310424805	556.3095092773438	-1235.671630859375	41.31289291381836	670.1301879882812	-1394.396362304688	44.54950332641602	603.360595703125	-1194.905639648438	932.6029663085938	389.2658081054688	-1194.390747070312	948.9638061523438	760.14111328125	
3	0.02	-1279.459716796875	1005.159790039062	648.7070922851562	-1269.968139648438	987.4107666015625	472.9111022949219	-1247.734497070312	1071.82373046875	566.823974609375	-973.1353149414062	1214.504028320312	560.25244140625	-1243.751220703125	1192.174926757812	572.64892578125	-1160.98974609375	1427.382568359375	558.7224731445312	-1021.080749511719	1322.3203125	558.6371459960938	-1232.661254882812	1300.16650390625	636.4507446289062	-1186.715454101562	1396.133178710938	454.496337890625	-1098.493286132812	1390.362670898438	397.4670104980469	-1153.654418945312	1283.039916992188	325.7045593261719	-1185.2626953125	1081.557495117188	309.9615783691406	-1241.4541015625	1076.961791992188	375.9542236328125	-1121.34521484375	854.812744140625	359.5110168457031	-1158.735107421875	843.88525390625	298.2478637695312	-1181.59814453125	976.5535888671875	301.9501037597656	-1131.437377929688	671.1591186523438	362.208251953125	-1160.08056640625	755.2073974609375	302.8737182617188	-1105.263549804688	754.8658447265625	340.3254089355469	-1092.163818359375	1390.5048828125	715.0379638671875	-1100.743530273438	1331.099487304688	782.4722900390625	-1109.00634765625	1060.361938476562	826.9177856445312	-1169.165893554688	1058.4580078125	751.6253051757812	-1040.849731445312	837.13037109375	730.7622680664062	-1060.033081054688	826.5811767578125	813.3262329101562	-1085.2763671875	990.6567993164062	825.907470703125	-1041.528442382812	650.9185180664062	716.222412109375	-1012.782287597656	719.9747924804688	730.3794555664062	-1043.833374023438	715.476318359375	793.6643676757812	-1123.178344726562	1575.37060546875	625.929443359375	-965.5228881835938	1604.951538085938	486.5215454101562	-956.8427124023438	1608.50439453125	578.6514892578125	-1137.412963867188	1560.261108398438	480.2085266113281	-1064.18603515625	942.3728637695312	700.551513671875	-1060.8603515625	941.0704956054688	449.2468872070312	-956.2849731445312	511.7527160644531	428.9511108398438	-1023.693176269531	640.0265502929688	403.2565612792969	-1168.28515625	109.6852188110352	427.5535278320312	-1053.438354492188	299.7913818359375	418.0040283203125	-987.507568359375	56.75543975830078	518.271240234375	-1061.614135742188	59.05875015258789	547.711669921875	-1052.775146484375	70.59297180175781	436.9886474609375	-1222.85400390625	118.4097900390625	477.5334777832031	-1218.079223632812	474.1122131347656	707.8487548828125	-1155.718627929688	729.0101318359375	751.4646606445312	-1340.084350585938	47.25737762451172	650.2246704101562	-1228.890502929688	351.5703735351562	686.2609252929688	-1146.6630859375	47.93003845214844	594.871826171875	-1203.951171875	44.39833831787109	556.299072265625	-1235.642211914062	41.30495834350586	670.1553344726562	-1394.344116210938	44.71231079101562	603.3157958984375	-1190.5712890625	932.7254638671875	389.4500732421875	-1190.59814453125	948.26025390625	760.131103515625	
4	0.03	-1275.159912109375	1004.795166015625	648.876953125	-1265.630981445312	987.3646850585938	473.0321044921875	-1243.13818359375	1071.648559570312	567.3259887695312	-968.7562866210938	1214.093505859375	560.4948120117188	-1239.0859375	1191.7421875	573.4913940429688	-1156.444458007812	1426.939453125	559.3495483398438	-1016.588928222656	1321.877807617188	558.96435546875	-1228.014892578125	1299.797119140625	637.2654418945312	-1182.41162109375	1395.7333984375	455.2077941894531	-1094.365234375	1389.943725585938	397.9837951660156	-1150.058471679688	1282.92041015625	326.2901916503906	-1182.743408203125	1081.614379882812	310.6854553222656	-1238.626098632812	1077.32373046875	377.0271911621094	-1119.29248046875	854.580322265625	359.6419982910156	-1157.098510742188	843.7575073242188	298.6438903808594	-1179.534545898438	976.5925903320312	302.5348510742188	-1130.066650390625	671.0197143554688	362.395751953125	-1158.52783203125	755.205810546875	303.08984375	-1103.807373046875	754.573486328125	340.3618774414062	-1087.281127929688	1390.13916015625	715.476318359375	-1095.630737304688	1330.7568359375	782.9820556640625	-1103.0107421875	1059.8740234375	827.0658569335938	-1163.523071289062	1057.871704101562	752.0408935546875	-1034.358642578125	837.2186889648438	729.9251098632812	-1053.042724609375	826.3125	812.5280151367188	-1079.01318359375	990.2781982421875	825.81689453125	-1034.242309570312	651.0615234375	714.7542114257812	-1005.661071777344	720.2387084960938	729.0045776367188	-1036.443237304688	715.354248046875	792.4022216796875	-1117.087646484375	1575.49267578125	626.4832763671875	-959.9901123046875	1603.523193359375	486.0641784667969	-950.7332153320312	1607.10009765625	578.144775390625	-1132.31787109375	1560.29052734375	480.8779907226562	-1059.961059570312	941.5352172851562	700.7301025390625	-1056.4482421875	940.9051513671875	449.4159240722656	-949.4436645507812	513.2311401367188	430.0017395019531	-1017.948974609375	640.9264526367188	403.7185668945312	-1149.084228515625	104.1818542480469	431.9544067382812	-1040.821899414062	297.9344787597656	420.5264892578125	-965.9286499023438	57.89125442504883	521.4808959960938	-1039.82861328125	57.95822143554688	551.4800415039062	-1032.345825195312	68.9677734375	440.6836547851562	-1203.521606445312	111.5381011962891	482.245361328125	-1215.329833984375	473.5489196777344	707.6278686523438	-1152.191650390625	728.171142578125	751.27880859375	-1340.12939453125	47.43737411499023	650.0400390625	-1226.789916992188	351.0439758300781	686.0301513671875	-1146.684814453125	47.9232292175293	594.9410400390625	-1203.919067382812	44.34071350097656	556.2645263671875	-1235.603881835938	41.3040771484375	670.1774291992188	-1394.257568359375	44.84579467773438	603.30126953125	-1186.156982421875	932.800537109375	389.5741577148438	-1186.4296875	947.4525756835938	760.10595703125	
